<svg width="8778" height="1210" viewBox="0 0 8778 1210" fill="none" xmlns="http://www.w3.org/2000/svg">
<path d="M55.0426 969V241.727H230.824V826.244H533.381V969H55.0426ZM604.379 969V423.545H778.029V969H604.379ZM691.381 359.98C666.997 359.98 646.045 351.931 628.526 335.832C611.007 319.497 602.248 299.848 602.248 276.884C602.248 254.156 611.007 234.743 628.526 218.645C646.045 202.31 666.997 194.142 691.381 194.142C716.003 194.142 736.954 202.31 754.237 218.645C771.755 234.743 780.515 254.156 780.515 276.884C780.515 299.848 771.755 319.497 754.237 335.832C736.954 351.931 716.003 359.98 691.381 359.98ZM1122.82 1184.91C1070.97 1184.91 1026.58 1177.69 989.652 1163.25C952.72 1148.81 923.719 1129.04 902.649 1103.94C881.579 1078.85 868.913 1050.44 864.652 1018.72L1029.07 1009.48C1032.15 1020.61 1037.83 1030.32 1046.12 1038.6C1054.64 1046.89 1065.65 1053.28 1079.14 1057.78C1092.87 1062.28 1108.97 1064.53 1127.44 1064.53C1156.56 1064.53 1180.58 1057.42 1199.52 1043.22C1218.7 1029.25 1228.29 1004.75 1228.29 969.71V873.83H1222.25C1215.39 890.638 1204.97 905.671 1191 918.929C1177.03 932.187 1159.63 942.603 1138.8 950.179C1118.2 957.755 1094.53 961.543 1067.78 961.543C1028 961.543 991.546 952.31 958.402 933.844C925.495 915.141 899.098 886.259 879.212 847.196C859.562 807.897 849.737 757.352 849.737 695.562C849.737 631.879 859.917 579.44 880.277 538.247C900.637 496.817 927.27 466.159 960.178 446.273C993.321 426.386 1028.95 416.443 1067.07 416.443C1095.71 416.443 1120.22 421.415 1140.58 431.358C1161.17 441.064 1178.1 453.612 1191.36 469C1204.61 484.388 1214.68 500.368 1221.54 516.94H1226.51V423.545H1399.45V971.131C1399.45 1017.3 1387.85 1056.24 1364.65 1087.96C1341.45 1119.69 1309.02 1143.72 1267.35 1160.05C1225.68 1176.62 1177.51 1184.91 1122.82 1184.91ZM1128.15 835.122C1149.22 835.122 1167.21 829.559 1182.12 818.432C1197.04 807.305 1208.52 791.325 1216.57 770.491C1224.62 749.658 1228.64 724.682 1228.64 695.562C1228.64 665.97 1224.62 640.52 1216.57 619.213C1208.76 597.67 1197.28 581.098 1182.12 569.497C1167.21 557.897 1149.22 552.097 1128.15 552.097C1106.6 552.097 1088.37 558.015 1073.46 569.852C1058.54 581.689 1047.18 598.38 1039.37 619.923C1031.79 641.23 1028 666.443 1028 695.562C1028 724.682 1031.91 749.658 1039.72 770.491C1047.54 791.325 1058.78 807.305 1073.46 818.432C1088.37 829.559 1106.6 835.122 1128.15 835.122ZM1663.81 657.92V969H1490.16V241.727H1658.13V523.688H1664.17C1676.48 490.07 1696.6 463.792 1724.53 444.852C1752.71 425.913 1787.15 416.443 1827.87 416.443C1866.23 416.443 1899.61 424.966 1928.01 442.011C1956.42 458.82 1978.44 482.613 1994.07 513.389C2009.93 544.166 2017.74 580.151 2017.5 621.344V969H1843.85V655.435C1844.09 625.132 1836.51 601.457 1821.13 584.412C1805.74 567.366 1784.08 558.844 1756.14 558.844C1737.91 558.844 1721.81 562.868 1707.84 570.918C1694.11 578.73 1683.34 589.975 1675.53 604.653C1667.95 619.331 1664.05 637.087 1663.81 657.92ZM2413.79 423.545V551.386H2069.68V423.545H2413.79ZM2141.77 292.864H2315.42V797.48C2315.42 808.134 2317.08 816.775 2320.39 823.403C2323.94 829.795 2329.03 834.412 2335.66 837.253C2342.29 839.857 2350.22 841.159 2359.45 841.159C2366.08 841.159 2373.07 840.567 2380.4 839.384C2387.98 837.963 2393.66 836.779 2397.45 835.832L2423.73 961.188C2415.44 963.555 2403.72 966.514 2388.57 970.065C2373.66 973.616 2355.78 975.866 2334.95 976.812C2294.23 978.706 2259.31 973.972 2230.19 962.608C2201.31 951.008 2179.17 933.015 2163.79 908.631C2148.63 884.246 2141.29 853.588 2141.77 816.656V292.864ZM2656.04 657.92V969H2482.39V423.545H2647.51V523.688H2653.55C2665.63 490.307 2686.22 464.147 2715.34 445.207C2744.46 426.031 2779.14 416.443 2819.39 416.443C2857.74 416.443 2891 425.084 2919.18 442.366C2947.59 459.412 2969.6 483.323 2985.23 514.099C3001.09 544.639 3008.9 580.387 3008.66 621.344V969H2835.01V655.435C2835.25 625.132 2827.56 601.457 2811.93 584.412C2796.54 567.366 2775.12 558.844 2747.66 558.844C2729.43 558.844 2713.33 562.868 2699.36 570.918C2685.63 578.73 2674.98 589.975 2667.4 604.653C2660.06 619.331 2656.27 637.087 2656.04 657.92ZM3096.18 969V423.545H3269.83V969H3096.18ZM3183.18 359.98C3158.79 359.98 3137.84 351.931 3120.32 335.832C3102.8 319.497 3094.04 299.848 3094.04 276.884C3094.04 254.156 3102.8 234.743 3120.32 218.645C3137.84 202.31 3158.79 194.142 3183.18 194.142C3207.8 194.142 3228.75 202.31 3246.03 218.645C3263.55 234.743 3272.31 254.156 3272.31 276.884C3272.31 299.848 3263.55 319.497 3246.03 335.832C3228.75 351.931 3207.8 359.98 3183.18 359.98ZM3534.01 657.92V969H3360.36V423.545H3525.48V523.688H3531.52C3543.59 490.307 3564.19 464.147 3593.31 445.207C3622.43 426.031 3657.11 416.443 3697.36 416.443C3735.71 416.443 3768.97 425.084 3797.14 442.366C3825.55 459.412 3847.57 483.323 3863.2 514.099C3879.06 544.639 3886.87 580.387 3886.63 621.344V969H3712.98V655.435C3713.22 625.132 3705.53 601.457 3689.9 584.412C3674.51 567.366 3653.09 558.844 3625.62 558.844C3607.4 558.844 3591.3 562.868 3577.33 570.918C3563.6 578.73 3552.95 589.975 3545.37 604.653C3538.03 619.331 3534.24 637.087 3534.01 657.92ZM4228.41 1184.91C4176.56 1184.91 4132.17 1177.69 4095.24 1163.25C4058.31 1148.81 4029.31 1129.04 4008.24 1103.94C3987.17 1078.85 3974.5 1050.44 3970.24 1018.72L4134.66 1009.48C4137.73 1020.61 4143.42 1030.32 4151.7 1038.6C4160.22 1046.89 4171.23 1053.28 4184.73 1057.78C4198.46 1062.28 4214.56 1064.53 4233.02 1064.53C4262.14 1064.53 4286.17 1057.42 4305.11 1043.22C4324.29 1029.25 4333.87 1004.75 4333.87 969.71V873.83H4327.84C4320.97 890.638 4310.56 905.671 4296.59 918.929C4282.62 932.187 4265.22 942.603 4244.39 950.179C4223.79 957.755 4200.11 961.543 4173.36 961.543C4133.59 961.543 4097.13 952.31 4063.99 933.844C4031.08 915.141 4004.68 886.259 3984.8 847.196C3965.15 807.897 3955.32 757.352 3955.32 695.562C3955.32 631.879 3965.5 579.44 3985.86 538.247C4006.22 496.817 4032.86 466.159 4065.76 446.273C4098.91 426.386 4134.54 416.443 4172.65 416.443C4201.3 416.443 4225.8 421.415 4246.16 431.358C4266.76 441.064 4283.68 453.612 4296.94 469C4310.2 484.388 4320.26 500.368 4327.13 516.94H4332.1V423.545H4505.04V971.131C4505.04 1017.3 4493.44 1056.24 4470.24 1087.96C4447.04 1119.69 4414.6 1143.72 4372.94 1160.05C4331.27 1176.62 4283.09 1184.91 4228.41 1184.91ZM4233.73 835.122C4254.8 835.122 4272.79 829.559 4287.71 818.432C4302.62 807.305 4314.11 791.325 4322.16 770.491C4330.2 749.658 4334.23 724.682 4334.23 695.562C4334.23 665.97 4330.2 640.52 4322.16 619.213C4314.34 597.67 4302.86 581.098 4287.71 569.497C4272.79 557.897 4254.8 552.097 4233.73 552.097C4212.19 552.097 4193.96 558.015 4179.04 569.852C4164.13 581.689 4152.77 598.38 4144.95 619.923C4137.38 641.23 4133.59 666.443 4133.59 695.562C4133.59 724.682 4137.5 749.658 4145.31 770.491C4153.12 791.325 4164.37 807.305 4179.04 818.432C4193.96 829.559 4212.19 835.122 4233.73 835.122ZM4947.9 969H4758.98L5004.37 241.727H5238.39L5483.77 969H5294.85L5124.04 424.966H5118.36L4947.9 969ZM4922.69 682.778H5317.58V816.301H4922.69V682.778ZM5707.11 976.812C5666.87 976.812 5630.29 966.396 5597.38 945.562C5564.48 924.729 5538.2 893.479 5518.55 851.812C5498.9 810.146 5489.07 758.418 5489.07 696.628C5489.07 632.471 5499.25 579.677 5519.61 538.247C5539.97 496.817 5566.61 466.159 5599.51 446.273C5632.66 426.386 5668.29 416.443 5706.4 416.443C5735.05 416.443 5759.55 421.415 5779.91 431.358C5800.27 441.064 5817.08 453.612 5830.34 469C5843.59 484.388 5853.66 500.368 5860.52 516.94H5864.07V241.727H6037.72V969H5865.85V880.577H5860.52C5853.18 897.385 5842.77 913.129 5829.27 927.807C5815.78 942.485 5798.85 954.322 5778.49 963.318C5758.37 972.314 5734.58 976.812 5707.11 976.812ZM5767.48 841.514C5788.55 841.514 5806.54 835.596 5821.46 823.759C5836.37 811.685 5847.86 794.758 5855.91 772.977C5863.95 751.197 5867.98 725.629 5867.98 696.273C5867.98 666.443 5863.95 640.757 5855.91 619.213C5848.09 597.67 5836.61 581.098 5821.46 569.497C5806.54 557.897 5788.55 552.097 5767.48 552.097C5745.94 552.097 5727.71 558.015 5712.79 569.852C5697.88 581.689 5686.52 598.38 5678.7 619.923C5671.13 641.467 5667.34 666.917 5667.34 696.273C5667.34 725.629 5671.25 751.197 5679.06 772.977C5686.87 794.758 5698.12 811.685 5712.79 823.759C5727.71 835.596 5745.94 841.514 5767.48 841.514ZM6326.76 976.812C6286.52 976.812 6249.94 966.396 6217.03 945.562C6184.12 924.729 6157.85 893.479 6138.2 851.812C6118.55 810.146 6108.72 758.418 6108.72 696.628C6108.72 632.471 6118.9 579.677 6139.26 538.247C6159.62 496.817 6186.25 466.159 6219.16 446.273C6252.31 426.386 6287.94 416.443 6326.05 416.443C6354.7 416.443 6379.2 421.415 6399.56 431.358C6419.92 441.064 6436.73 453.612 6449.99 469C6463.24 484.388 6473.3 500.368 6480.17 516.94H6483.72V241.727H6657.37V969H6485.5V880.577H6480.17C6472.83 897.385 6462.41 913.129 6448.92 927.807C6435.43 942.485 6418.5 954.322 6398.14 963.318C6378.02 972.314 6354.22 976.812 6326.76 976.812ZM6387.13 841.514C6408.2 841.514 6426.19 835.596 6441.11 823.759C6456.02 811.685 6467.5 794.758 6475.55 772.977C6483.6 751.197 6487.63 725.629 6487.63 696.273C6487.63 666.443 6483.6 640.757 6475.55 619.213C6467.74 597.67 6456.26 581.098 6441.11 569.497C6426.19 557.897 6408.2 552.097 6387.13 552.097C6365.59 552.097 6347.36 558.015 6332.44 569.852C6317.53 581.689 6306.16 598.38 6298.35 619.923C6290.78 641.467 6286.99 666.917 6286.99 696.273C6286.99 725.629 6290.89 751.197 6298.71 772.977C6306.52 794.758 6317.77 811.685 6332.44 823.759C6347.36 835.596 6365.59 841.514 6387.13 841.514ZM6747.19 969V423.545H6915.87V522.977H6921.55C6931.5 486.992 6947.71 460.241 6970.2 442.722C6992.69 424.966 7018.85 416.088 7048.68 416.088C7056.73 416.088 7065.02 416.68 7073.54 417.864C7082.06 418.811 7089.99 420.349 7097.33 422.48V573.403C7089.05 570.562 7078.16 568.313 7064.66 566.656C7051.41 564.999 7039.57 564.17 7029.15 564.17C7008.55 564.17 6989.97 568.787 6973.4 578.02C6957.06 587.016 6944.16 599.682 6934.69 616.017C6925.46 632.116 6920.84 651.055 6920.84 672.835V969H6747.19ZM7374.74 979.298C7317.69 979.298 7268.44 968.053 7227.01 945.562C7185.82 922.835 7154.1 890.52 7131.84 848.616C7109.83 806.476 7098.82 756.405 7098.82 698.403C7098.82 642.059 7109.94 592.816 7132.2 550.676C7154.45 508.299 7185.82 475.392 7226.3 451.955C7266.79 428.28 7314.49 416.443 7369.41 416.443C7408.24 416.443 7443.75 422.48 7475.95 434.554C7508.15 446.628 7535.96 464.502 7559.4 488.176C7582.84 511.85 7601.07 541.088 7614.09 575.889C7627.11 610.454 7633.62 650.108 7633.62 694.852V738.176H7159.54V637.324H7472.04C7471.81 618.858 7467.43 602.404 7458.9 587.963C7450.38 573.522 7438.66 562.277 7423.75 554.227C7409.07 545.941 7392.14 541.798 7372.97 541.798C7353.55 541.798 7336.15 546.178 7320.76 554.938C7305.38 563.46 7293.18 575.179 7284.19 590.094C7275.19 604.772 7270.46 621.462 7269.98 640.165V742.793C7269.98 765.046 7274.36 784.578 7283.12 801.386C7291.88 817.958 7304.31 830.861 7320.41 840.094C7336.51 849.327 7355.68 853.943 7377.94 853.943C7393.33 853.943 7407.29 851.812 7419.84 847.551C7432.39 843.29 7443.16 837.016 7452.16 828.73C7461.15 820.444 7467.9 810.264 7472.4 798.19L7631.84 802.807C7625.21 838.555 7610.65 869.687 7588.16 896.202C7565.91 922.48 7536.67 942.958 7500.45 957.636C7464.23 972.078 7422.33 979.298 7374.74 979.298ZM8178.52 590.094L8019.07 594.355C8017.41 582.991 8012.91 572.93 8005.58 564.17C7998.24 555.174 7988.65 548.19 7976.81 543.219C7965.21 538.01 7951.72 535.406 7936.33 535.406C7916.21 535.406 7899.04 539.431 7884.84 547.48C7870.87 555.529 7864 566.42 7864.24 580.151C7864 590.804 7868.26 600.037 7877.02 607.849C7886.02 615.662 7902 621.936 7924.96 626.67L8030.08 646.557C8084.53 656.973 8125.01 674.256 8151.53 698.403C8178.28 722.551 8191.77 754.511 8192.01 794.284C8191.77 831.689 8180.65 864.241 8158.63 891.94C8136.85 919.639 8107.02 941.183 8069.14 956.571C8031.26 971.723 7987.94 979.298 7939.17 979.298C7861.28 979.298 7799.85 963.318 7754.87 931.358C7710.12 899.161 7684.55 856.074 7678.16 802.097L7849.68 797.835C7853.47 817.722 7863.29 832.873 7879.15 843.29C7895.02 853.706 7915.26 858.915 7939.88 858.915C7962.13 858.915 7980.24 854.772 7994.21 846.486C8008.18 838.2 8015.28 827.191 8015.52 813.46C8015.28 801.15 8009.84 791.325 7999.18 783.986C7988.53 776.41 7971.84 770.491 7949.11 766.23L7853.94 748.119C7799.25 738.176 7758.53 719.829 7731.78 693.077C7705.03 666.088 7691.77 631.76 7692.01 590.094C7691.77 553.635 7701.48 522.504 7721.13 496.699C7740.78 470.657 7768.71 450.771 7804.94 437.04C7841.16 423.309 7883.89 416.443 7933.13 416.443C8007 416.443 8065.23 431.95 8107.85 462.963C8150.46 493.74 8174.02 536.116 8178.52 590.094ZM8733.71 590.094L8574.26 594.355C8572.61 582.991 8568.11 572.93 8560.77 564.17C8553.43 555.174 8543.84 548.19 8532.01 543.219C8520.41 538.01 8506.91 535.406 8491.52 535.406C8471.4 535.406 8454.24 539.431 8440.03 547.48C8426.06 555.529 8419.2 566.42 8419.44 580.151C8419.2 590.804 8423.46 600.037 8432.22 607.849C8441.22 615.662 8457.2 621.936 8480.16 626.67L8585.27 646.557C8639.72 656.973 8680.21 674.256 8706.72 698.403C8733.47 722.551 8746.97 754.511 8747.21 794.284C8746.97 831.689 8735.84 864.241 8713.82 891.94C8692.04 919.639 8662.21 941.183 8624.34 956.571C8586.46 971.723 8543.13 979.298 8494.36 979.298C8416.48 979.298 8355.04 963.318 8310.06 931.358C8265.32 899.161 8239.75 856.074 8233.36 802.097L8404.88 797.835C8408.66 817.722 8418.49 832.873 8434.35 843.29C8450.21 853.706 8470.45 858.915 8495.07 858.915C8517.33 858.915 8535.44 854.772 8549.41 846.486C8563.37 838.2 8570.48 827.191 8570.71 813.46C8570.48 801.15 8565.03 791.325 8554.38 783.986C8543.73 776.41 8527.03 770.491 8504.31 766.23L8409.14 748.119C8354.45 738.176 8313.73 719.829 8286.98 693.077C8260.23 666.088 8246.97 631.76 8247.21 590.094C8246.97 553.635 8256.67 522.504 8276.32 496.699C8295.97 470.657 8323.91 450.771 8360.13 437.04C8396.35 423.309 8439.08 416.443 8488.33 416.443C8562.19 416.443 8620.43 431.95 8663.04 462.963C8705.66 493.74 8729.21 536.116 8733.71 590.094Z" fill="black"/>
</svg>
